<?xml version="1.0" standalone="no"?>
<!DOCTYPE svg PUBLIC "-//W3C//DTD SVG 20010904//EN"
 "http://www.w3.org/TR/2001/REC-SVG-20010904/DTD/svg10.dtd">
<svg version="1.0" xmlns="http://www.w3.org/2000/svg"
 width="380.000000pt" height="380.000000pt" viewBox="0 0 380.000000 380.000000"
 preserveAspectRatio="xMidYMid meet">

<g transform="translate(0.000000,380.000000) scale(0.100000,-0.100000)"
fill="#000000" stroke="none">
<path d="M0 3398 c1 -355 2 -400 15 -378 11 20 14 21 15 7 0 -35 25 -48 72
-38 24 5 54 8 68 8 75 -2 110 4 110 18 0 18 12 19 27 4 8 -8 13 -8 17 0 4 6
20 11 35 11 15 0 49 6 74 14 30 9 47 10 47 4 0 -6 11 -8 28 -3 15 3 38 7 52 7
31 0 62 16 55 29 -8 12 40 30 60 23 8 -4 12 -11 9 -16 -4 -6 -10 -5 -15 3 -6
11 -11 11 -21 1 -8 -8 -9 -12 -1 -12 12 0 10 -30 -3 -53 -4 -6 2 -3 13 8 14
13 16 22 9 27 -7 5 -5 8 6 8 29 0 32 22 6 45 -22 19 -23 23 -10 31 12 8 7 16
-29 42 -86 64 -144 160 -173 289 -9 40 -16 91 -15 115 l0 43 30 -59 c16 -33
43 -74 61 -90 17 -17 28 -24 23 -16 -5 9 -4 12 1 7 5 -5 9 -16 9 -25 0 -10 7
-16 17 -16 10 1 16 -3 15 -10 -1 -6 4 -10 11 -8 8 1 11 -2 8 -7 -5 -8 102 -71
119 -71 15 0 2 19 -16 23 -21 6 -18 27 4 27 7 0 6 -4 -3 -10 -9 -6 -10 -10 -3
-10 6 0 19 -3 29 -7 16 -6 16 -4 1 23 -54 100 -118 244 -113 253 4 5 -7 3 -24
-6 -17 -8 -59 -17 -92 -21 -54 -4 -61 -3 -55 11 4 10 2 17 -3 17 -6 0 -10 9
-10 21 0 11 -4 17 -10 14 -6 -4 -10 5 -10 19 0 30 -15 33 -63 13 -70 -30 -79
14 -9 45 26 11 41 23 34 25 -6 3 -10 9 -6 14 3 5 -77 9 -195 9 l-201 0 0 -402z"/>
<path d="M773 3773 c-7 -16 -18 -36 -25 -45 -11 -16 -5 -25 52 -79 36 -34 103
-99 150 -144 l85 -83 32 13 c20 8 33 10 35 4 3 -10 36 0 68 21 8 5 47 22 87
37 39 15 69 31 67 35 -3 5 7 6 22 2 21 -5 25 -4 19 6 -5 9 -4 11 4 6 6 -4 42
2 79 13 125 37 208 45 462 45 258 0 390 -13 550 -55 41 -11 84 -22 95 -25 16
-4 17 -3 5 5 -13 9 -13 11 1 11 20 0 20 1 26 135 3 69 9 112 16 117 7 4 -400
8 -903 8 l-916 0 -11 -27z m1764 -229 c-3 -3 -12 -4 -19 -1 -8 3 -5 6 6 6 11
1 17 -2 13 -5z"/>
<path d="M675 3666 c-12 -10 -16 -19 -10 -23 6 -5 16 -17 22 -28 19 -31 105
-182 132 -231 13 -24 27 -41 32 -38 5 3 6 -2 3 -10 -8 -21 20 -31 43 -16 17
11 17 11 0 6 -11 -3 -15 -2 -12 4 3 6 14 10 23 10 9 0 28 9 42 20 14 11 31 20
39 20 11 0 11 3 1 15 -10 12 -16 13 -29 3 -13 -10 -14 -10 -3 2 10 12 -8 35
-110 137 -68 68 -128 123 -135 123 -6 0 -13 5 -15 10 -2 7 -11 5 -23 -4z"/>
<path d="M765 3340 c-3 -5 -1 -10 4 -10 6 0 11 5 11 10 0 6 -2 10 -4 10 -3 0
-8 -4 -11 -10z"/>
<path d="M704 3129 c-10 -17 10 -29 23 -14 10 10 9 14 -2 19 -8 3 -17 0 -21
-5z"/>
<path d="M2538 2310 c40 -25 47 -25 25 -2 -10 10 -27 18 -37 19 -14 2 -10 -4
12 -17z"/>
<path d="M872 1975 c0 -16 2 -22 5 -12 2 9 2 23 0 30 -3 6 -5 -1 -5 -18z"/>
<path d="M3500 1995 c0 -3 8 -18 17 -33 9 -15 13 -24 8 -20 -4 4 -15 2 -24 -5
-14 -11 -14 -10 -2 6 11 14 11 21 2 30 -9 9 -14 9 -21 -3 -5 -8 -7 -17 -4 -21
2 -4 -3 -23 -11 -43 -20 -47 -85 -288 -85 -314 0 -11 -5 -22 -12 -24 -15 -5
30 -97 82 -165 22 -29 35 -53 30 -53 -6 0 -33 11 -60 25 -60 30 -61 31 -57 3
6 -41 27 -69 46 -63 15 4 20 -2 25 -37 8 -49 21 -68 47 -68 21 0 33 -29 23
-55 -5 -13 -4 -16 5 -11 7 5 20 -3 32 -18 11 -14 26 -26 34 -26 7 0 16 -6 18
-12 3 -7 6 -3 6 10 1 20 4 21 21 12 27 -15 86 4 101 31 8 16 17 18 45 13 l35
-6 -2 89 c-1 74 -4 90 -17 89 -10 -1 -15 9 -16 32 -1 37 2 39 20 15 11 -15 13
17 14 204 l0 221 -32 7 c-18 4 -38 11 -43 16 -6 4 -17 4 -25 -1 -8 -5 -24 -3
-40 5 -35 18 -100 91 -101 113 0 15 -59 72 -59 57z m-21 -567 c1 -16 -3 -28
-8 -28 -15 0 -21 28 -14 62 5 27 7 29 14 13 4 -11 8 -32 8 -47z"/>
<path d="M1332 1910 c-2 -24 -8 -27 -68 -37 -94 -16 -180 -71 -299 -192 -54
-55 -102 -98 -106 -96 -3 3 -6 -7 -6 -21 0 -17 14 -41 43 -70 l44 -43 0 42 c0
51 35 108 99 161 43 36 67 42 40 10 -13 -16 -11 -17 15 -12 20 4 34 0 47 -13
11 -11 23 -19 29 -19 6 0 6 -10 -1 -27 -14 -37 -2 -79 28 -103 50 -39 101 -18
122 51 9 31 15 39 22 28 7 -11 9 -10 10 6 l0 20 9 -20 c6 -13 9 -15 9 -5 2 24
21 -10 21 -37 0 -22 17 -40 27 -29 10 9 5 123 -7 167 -6 21 -23 52 -37 70
l-27 31 35 -7 c19 -4 43 -14 54 -21 28 -20 31 -18 29 18 -3 36 -71 108 -104
108 -14 0 -20 9 -23 33 -3 25 -4 27 -5 7z m-108 -353 c7 -6 6 -7 -4 -4 -8 2
-16 12 -17 23 -2 13 -1 15 4 4 3 -8 11 -19 17 -23z"/>
<path d="M2260 1858 c0 -4 -16 -26 -36 -48 -20 -21 -33 -43 -30 -48 3 -5 -1
-20 -9 -35 l-14 -27 39 20 c52 26 62 25 54 -5 -6 -22 -3 -25 24 -25 38 0 60
-32 54 -80 -14 -112 3 -160 55 -160 37 0 60 16 84 60 33 59 72 53 84 -13 14
-73 39 -27 28 52 -3 25 -14 65 -24 88 l-18 43 27 -18 c49 -31 84 -66 109 -110
21 -35 24 -50 19 -84 l-7 -42 22 28 c12 15 32 32 45 36 36 14 32 60 -8 102
-18 19 -60 63 -93 98 -64 67 -171 142 -220 155 -48 12 -185 21 -185 13z"/>
<path d="M2237 1510 c-6 -72 6 -185 23 -205 22 -26 29 -16 14 20 -9 22 -14 70
-14 134 0 111 -14 143 -23 51z"/>
<path d="M110 1546 c0 -2 8 -10 18 -17 15 -13 16 -12 3 4 -13 16 -21 21 -21
13z"/>
<path d="M1050 1492 c0 -97 66 -222 117 -222 13 0 8 8 -18 30 -41 33 -75 114
-83 194 -7 70 -16 69 -16 -2z"/>
<path d="M170 1500 c0 -5 10 -15 23 -21 22 -12 22 -12 3 10 -21 23 -26 26 -26
11z"/>
<path d="M1390 1412 c0 -10 -11 -41 -25 -67 -24 -48 -26 -63 -7 -51 26 16 63
136 42 136 -5 0 -10 -8 -10 -18z"/>
<path d="M310 1376 c0 -2 8 -10 18 -17 15 -13 16 -12 3 4 -13 16 -21 21 -21
13z"/>
<path d="M2527 1356 c-9 -13 -22 -29 -29 -37 -29 -31 -40 -49 -30 -49 13 0 75
65 72 75 -1 4 4 11 10 15 8 5 8 10 2 14 -5 3 -17 -5 -25 -18z"/>
<path d="M3021 1074 c0 -11 3 -14 6 -6 3 7 2 16 -1 19 -3 4 -6 -2 -5 -13z"/>
<path d="M885 1010 c3 -5 11 -10 16 -10 6 0 7 5 4 10 -3 6 -11 10 -16 10 -6 0
-7 -4 -4 -10z"/>
<path d="M810 956 c0 -2 8 -10 18 -17 15 -13 16 -12 3 4 -13 16 -21 21 -21 13z"/>
<path d="M850 926 c0 -2 8 -10 18 -17 15 -13 16 -12 3 4 -13 16 -21 21 -21 13z"/>
<path d="M2961 868 c-9 -28 -9 -30 3 -16 7 10 16 15 19 11 4 -3 7 3 7 15 0 33
-17 26 -29 -10z"/>
<path d="M931 853 c7 -12 15 -20 18 -17 3 2 -3 12 -13 22 -17 16 -18 16 -5 -5z"/>
<path d="M1100 860 c0 -5 5 -10 11 -10 5 0 7 5 4 10 -3 6 -8 10 -11 10 -2 0
-4 -4 -4 -10z"/>
<path d="M3583 800 c0 -36 2 -50 4 -32 2 17 2 47 0 65 -2 17 -4 3 -4 -33z"/>
<path d="M990 805 c13 -14 26 -25 28 -25 3 0 -5 11 -18 25 -13 14 -26 25 -28
25 -3 0 5 -11 18 -25z"/>
<path d="M1040 767 c0 -3 19 -20 43 -38 23 -18 34 -24 24 -13 -9 11 -14 24
-10 29 5 4 2 5 -5 1 -8 -5 -21 -1 -33 10 -10 9 -19 15 -19 11z"/>
<path d="M2915 761 c-3 -5 -2 -12 3 -15 5 -3 9 1 9 9 0 17 -3 19 -12 6z"/>
<path d="M1315 710 c3 -5 11 -10 16 -10 6 0 7 5 4 10 -3 6 -11 10 -16 10 -6 0
-7 -4 -4 -10z"/>
<path d="M2971 703 c7 -10 15 -20 16 -22 2 -2 3 3 3 11 0 9 -7 19 -16 22 -15
6 -15 4 -3 -11z"/>
<path d="M1154 673 c16 -18 32 -31 34 -28 3 3 3 6 1 8 -2 1 -17 13 -34 27
l-30 25 29 -32z"/>
<path d="M990 648 c0 -7 5 -20 10 -28 8 -12 10 -11 10 7 0 12 -4 25 -10 28 -5
3 -10 0 -10 -7z"/>
<path d="M1231 608 c63 -59 115 -102 155 -132 21 -17 41 -33 44 -36 3 -3 32
-29 65 -57 62 -53 134 -79 149 -54 6 10 -6 15 -26 12 -5 0 -8 5 -8 12 0 8 -16
27 -36 43 -20 16 -51 41 -68 55 -53 44 -69 50 -88 32 -17 -15 -18 -15 -18 1 0
10 -6 16 -16 14 -10 -2 -18 5 -19 15 -3 15 0 15 26 -4 16 -11 29 -17 29 -12
-1 13 -49 45 -60 38 -5 -3 -17 6 -26 20 -9 14 -23 24 -30 21 -7 -3 -16 0 -20
6 -4 6 -3 8 4 4 6 -3 13 -2 17 4 6 9 -10 14 -42 13 -7 -1 -10 4 -6 10 4 6 0 8
-10 4 -10 -3 -17 -2 -17 2 0 5 -8 12 -17 15 -10 3 -2 -8 18 -26z m102 -63 c23
-32 17 -32 -13 0 -13 14 -19 25 -14 25 5 0 17 -12 27 -25z"/>
<path d="M1035 610 c10 -11 20 -20 23 -20 3 0 -3 9 -13 20 -10 11 -20 20 -23
20 -3 0 3 -9 13 -20z"/>
<path d="M1085 572 c11 -13 29 -28 40 -34 21 -11 18 -8 -30 32 -29 24 -29 24
-10 2z"/>
<path d="M3462 545 c0 -16 2 -22 5 -12 2 9 2 23 0 30 -3 6 -5 -1 -5 -18z"/>
<path d="M1190 497 c0 -3 18 -16 40 -28 28 -16 39 -28 35 -38 -4 -11 0 -10 15
4 21 19 27 30 10 20 -5 -3 -30 6 -55 20 -25 15 -45 25 -45 22z"/>
<path d="M1050 455 c0 -5 5 -17 10 -25 5 -8 10 -10 10 -5 0 6 -5 17 -10 25 -5
8 -10 11 -10 5z"/>
<path d="M273 325 c0 -22 2 -30 4 -17 2 12 2 30 0 40 -3 9 -5 -1 -4 -23z"/>
<path d="M1091 344 c0 -11 3 -14 6 -6 3 7 2 16 -1 19 -3 4 -6 -2 -5 -13z"/>
<path d="M1189 333 c-13 -16 -12 -17 4 -4 16 13 21 21 13 21 -2 0 -10 -8 -17
-17z"/>
<path d="M2741 194 c0 -11 3 -14 6 -6 3 7 2 16 -1 19 -3 4 -6 -2 -5 -13z"/>
<path d="M2747 90 c3 -47 7 -87 9 -89 7 -8 3 83 -6 129 -6 33 -7 22 -3 -40z"/>
<path d="M2565 103 c5 -16 11 -46 15 -68 l7 -40 3 50 c1 28 4 42 7 32 2 -9 8
-15 13 -12 5 3 21 -10 36 -30 14 -19 35 -35 45 -35 24 0 25 27 2 34 -10 3 -40
26 -68 51 -58 52 -70 55 -60 18z"/>
<path d="M2660 76 c0 -2 8 -10 18 -17 15 -13 16 -12 3 4 -13 16 -21 21 -21 13z"/>
<path d="M2630 16 c0 -9 5 -16 10 -16 6 0 10 4 10 9 0 6 -4 13 -10 16 -5 3
-10 -1 -10 -9z"/>
</g>
</svg>
